<svg class="main-svg" xmlns="http://www.w3.org/2000/svg" xmlns:xlink="http://www.w3.org/1999/xlink" width="700" height="500" style="" viewBox="0 0 700 500"><rect x="0" y="0" width="700" height="500" style="fill: rgb(0, 0, 0); fill-opacity: 0;"/><defs id="defs-3e0092"><g class="clips"><clipPath id="clip3e0092xyplot" class="plotclip"><rect width="540" height="360"/></clipPath><clipPath class="axesclip" id="clip3e0092x"><rect x="80" y="0" width="540" height="500"/></clipPath><clipPath class="axesclip" id="clip3e0092y"><rect x="0" y="60" width="700" height="360"/></clipPath><clipPath class="axesclip" id="clip3e0092xy"><rect x="80" y="60" width="540" height="360"/></clipPath></g><g class="gradients"/></defs><g class="bglayer"><rect class="bg" x="80" y="60" width="540" height="360" style="fill: rgb(0, 0, 0); fill-opacity: 0; stroke-width: 0;"/></g><g class="layer-below"><g class="imagelayer"/><g class="shapelayer"/></g><g class="cartesianlayer"><g class="subplot xy"><g class="layer-subplot"><g class="shapelayer"/><g class="imagelayer"/></g><g class="gridlayer"><g class="x"/><g class="y"/></g><g class="zerolinelayer"/><path class="xlines-below"/><path class="ylines-below"/><g class="overlines-below"/><g class="xaxislayer-below"/><g class="yaxislayer-below"/><g class="overaxes-below"/><g class="plot" transform="translate(80,60)" clip-path="url('#clip3e0092xyplot')"><g class="scatterlayer mlayer"><g class="trace scatter trace72ec9c" style="stroke-miterlimit: 2; opacity: 1;"><g class="fills"/><g class="errorbars"/><g class="lines"><path class="js-line" d="M60,353.08Q96.81,251.48 120,214.62C138.07,185.9 157.39,155.7 180,145.38C198.29,137.03 221.71,153.73 240,145.38C262.61,135.06 277.39,86.47 300,76.15C318.29,67.8 340,76.15 360,76.15C380,76.15 400,76.15 420,76.15Q440,76.15 480,76.15" style="vector-effect: non-scaling-stroke; fill: none; stroke: rgb(234, 80, 77); stroke-opacity: 1; stroke-width: 4px; opacity: 1;"/></g><g class="points"><path class="point" transform="translate(60,353.08)" d="M3,0A3,3 0 1,1 0,-3A3,3 0 0,1 3,0Z" style="opacity: 1; stroke-width: 0px; fill: rgb(234, 80, 77); fill-opacity: 1;"/><path class="point" transform="translate(120,214.62)" d="M3,0A3,3 0 1,1 0,-3A3,3 0 0,1 3,0Z" style="opacity: 1; stroke-width: 0px; fill: rgb(234, 80, 77); fill-opacity: 1;"/><path class="point" transform="translate(180,145.38)" d="M3,0A3,3 0 1,1 0,-3A3,3 0 0,1 3,0Z" style="opacity: 1; stroke-width: 0px; fill: rgb(234, 80, 77); fill-opacity: 1;"/><path class="point" transform="translate(240,145.38)" d="M3,0A3,3 0 1,1 0,-3A3,3 0 0,1 3,0Z" style="opacity: 1; stroke-width: 0px; fill: rgb(234, 80, 77); fill-opacity: 1;"/><path class="point" transform="translate(300,76.15)" d="M3,0A3,3 0 1,1 0,-3A3,3 0 0,1 3,0Z" style="opacity: 1; stroke-width: 0px; fill: rgb(234, 80, 77); fill-opacity: 1;"/><path class="point" transform="translate(360,76.15)" d="M3,0A3,3 0 1,1 0,-3A3,3 0 0,1 3,0Z" style="opacity: 1; stroke-width: 0px; fill: rgb(234, 80, 77); fill-opacity: 1;"/><path class="point" transform="translate(420,76.15)" d="M3,0A3,3 0 1,1 0,-3A3,3 0 0,1 3,0Z" style="opacity: 1; stroke-width: 0px; fill: rgb(234, 80, 77); fill-opacity: 1;"/><path class="point" transform="translate(480,76.15)" d="M3,0A3,3 0 1,1 0,-3A3,3 0 0,1 3,0Z" style="opacity: 1; stroke-width: 0px; fill: rgb(234, 80, 77); fill-opacity: 1;"/></g><g class="text"/></g><g class="trace scatter tracef4abc1" style="stroke-miterlimit: 2; opacity: 1;"><g class="fills"/><g class="errorbars"/><g class="lines"><path class="js-line" d="M120,353.08Q153.5,194.15 180,145.38C197.25,113.63 220,99.23 240,76.15C260,53.07 277.39,17.24 300,6.92C318.29,-1.43 340,6.92 360,6.92C380,6.92 400,6.92 420,6.92Q440,6.92 480,6.92" style="vector-effect: non-scaling-stroke; fill: none; stroke: rgb(178, 33, 29); stroke-opacity: 1; stroke-width: 4px; opacity: 1;"/></g><g class="points"><path class="point" transform="translate(120,353.08)" d="M3,0A3,3 0 1,1 0,-3A3,3 0 0,1 3,0Z" style="opacity: 1; stroke-width: 0px; fill: rgb(178, 33, 29); fill-opacity: 1;"/><path class="point" transform="translate(180,145.38)" d="M3,0A3,3 0 1,1 0,-3A3,3 0 0,1 3,0Z" style="opacity: 1; stroke-width: 0px; fill: rgb(178, 33, 29); fill-opacity: 1;"/><path class="point" transform="translate(240,76.15)" d="M3,0A3,3 0 1,1 0,-3A3,3 0 0,1 3,0Z" style="opacity: 1; stroke-width: 0px; fill: rgb(178, 33, 29); fill-opacity: 1;"/><path class="point" transform="translate(300,6.92)" d="M3,0A3,3 0 1,1 0,-3A3,3 0 0,1 3,0Z" style="opacity: 1; stroke-width: 0px; fill: rgb(178, 33, 29); fill-opacity: 1;"/><path class="point" transform="translate(360,6.92)" d="M3,0A3,3 0 1,1 0,-3A3,3 0 0,1 3,0Z" style="opacity: 1; stroke-width: 0px; fill: rgb(178, 33, 29); fill-opacity: 1;"/><path class="point" transform="translate(420,6.92)" d="M3,0A3,3 0 1,1 0,-3A3,3 0 0,1 3,0Z" style="opacity: 1; stroke-width: 0px; fill: rgb(178, 33, 29); fill-opacity: 1;"/><path class="point" transform="translate(480,6.92)" d="M3,0A3,3 0 1,1 0,-3A3,3 0 0,1 3,0Z" style="opacity: 1; stroke-width: 0px; fill: rgb(178, 33, 29); fill-opacity: 1;"/></g><g class="text"/></g><g class="trace scatter tracef730ef" style="stroke-miterlimit: 2; opacity: 1;"><g class="fills"/><g class="errorbars"/><g class="lines"><path class="js-line" d="M120,353.08Q152.81,232.47 180,214.62C197.14,203.37 222.86,225.87 240,214.62C267.19,196.77 272.81,94 300,76.15C317.14,64.9 340,76.15 360,76.15C380,76.15 400,76.15 420,76.15Q440,76.15 480,76.15" style="vector-effect: non-scaling-stroke; fill: none; stroke: rgb(49, 46, 46); stroke-opacity: 1; stroke-width: 4px; opacity: 1;"/></g><g class="points"><path class="point" transform="translate(120,353.08)" d="M3,0A3,3 0 1,1 0,-3A3,3 0 0,1 3,0Z" style="opacity: 1; stroke-width: 0px; fill: rgb(49, 46, 46); fill-opacity: 1;"/><path class="point" transform="translate(180,214.62)" d="M3,0A3,3 0 1,1 0,-3A3,3 0 0,1 3,0Z" style="opacity: 1; stroke-width: 0px; fill: rgb(49, 46, 46); fill-opacity: 1;"/><path class="point" transform="translate(240,214.62)" d="M3,0A3,3 0 1,1 0,-3A3,3 0 0,1 3,0Z" style="opacity: 1; stroke-width: 0px; fill: rgb(49, 46, 46); fill-opacity: 1;"/><path class="point" transform="translate(300,76.15)" d="M3,0A3,3 0 1,1 0,-3A3,3 0 0,1 3,0Z" style="opacity: 1; stroke-width: 0px; fill: rgb(49, 46, 46); fill-opacity: 1;"/><path class="point" transform="translate(360,76.15)" d="M3,0A3,3 0 1,1 0,-3A3,3 0 0,1 3,0Z" style="opacity: 1; stroke-width: 0px; fill: rgb(49, 46, 46); fill-opacity: 1;"/><path class="point" transform="translate(420,76.15)" d="M3,0A3,3 0 1,1 0,-3A3,3 0 0,1 3,0Z" style="opacity: 1; stroke-width: 0px; fill: rgb(49, 46, 46); fill-opacity: 1;"/><path class="point" transform="translate(480,76.15)" d="M3,0A3,3 0 1,1 0,-3A3,3 0 0,1 3,0Z" style="opacity: 1; stroke-width: 0px; fill: rgb(49, 46, 46); fill-opacity: 1;"/></g><g class="text"/></g><g class="trace scatter tracea8bbdb" style="stroke-miterlimit: 2; opacity: 1;"><g class="fills"/><g class="errorbars"/><g class="lines"><path class="js-line" d="M300,353.08Q333.5,194.15 360,145.38C377.25,113.63 400,99.23 420,76.15Q440,53.07 480,6.92" style="vector-effect: non-scaling-stroke; fill: none; stroke: rgb(204, 204, 204); stroke-opacity: 1; stroke-width: 4px; opacity: 1;"/></g><g class="points"><path class="point" transform="translate(300,353.08)" d="M3,0A3,3 0 1,1 0,-3A3,3 0 0,1 3,0Z" style="opacity: 1; stroke-width: 0px; fill: rgb(204, 204, 204); fill-opacity: 1;"/><path class="point" transform="translate(360,145.38)" d="M3,0A3,3 0 1,1 0,-3A3,3 0 0,1 3,0Z" style="opacity: 1; stroke-width: 0px; fill: rgb(204, 204, 204); fill-opacity: 1;"/><path class="point" transform="translate(420,76.15)" d="M3,0A3,3 0 1,1 0,-3A3,3 0 0,1 3,0Z" style="opacity: 1; stroke-width: 0px; fill: rgb(204, 204, 204); fill-opacity: 1;"/><path class="point" transform="translate(480,6.92)" d="M3,0A3,3 0 1,1 0,-3A3,3 0 0,1 3,0Z" style="opacity: 1; stroke-width: 0px; fill: rgb(204, 204, 204); fill-opacity: 1;"/></g><g class="text"/></g></g></g><g class="overplot"/><path class="xlines-above crisp" d="M0,0" style="fill: none;"/><path class="ylines-above crisp" d="M0,0" style="fill: none;"/><g class="overlines-above"/><g class="xaxislayer-above"><g class="xtick"><text text-anchor="middle" x="0" y="433" transform="translate(200,0)" style="font-family: 'Open Sans', verdana, arial, sans-serif; font-size: 12px; fill: rgb(42, 63, 95); fill-opacity: 1; white-space: pre;">2015</text></g><g class="xtick"><text text-anchor="middle" x="0" y="433" transform="translate(380,0)" style="font-family: 'Open Sans', verdana, arial, sans-serif; font-size: 12px; fill: rgb(42, 63, 95); fill-opacity: 1; white-space: pre;">2018</text></g><g class="xtick"><text text-anchor="middle" x="0" y="433" transform="translate(560,0)" style="font-family: 'Open Sans', verdana, arial, sans-serif; font-size: 12px; fill: rgb(42, 63, 95); fill-opacity: 1; white-space: pre;">2021</text></g></g><g class="yaxislayer-above"/><g class="overaxes-above"/></g></g><g class="polarlayer"/><g class="ternarylayer"/><g class="geolayer"/><g class="funnelarealayer"/><g class="pielayer"/><g class="treemaplayer"/><g class="sunburstlayer"/><g class="glimages"/><defs id="topdefs-3e0092"><g class="clips"/><clipPath id="legend3e0092"><rect width="96" height="100" x="0" y="0"/></clipPath></defs><g class="layer-above"><g class="imagelayer"/><g class="shapelayer"/></g><g class="infolayer"><g class="legend" pointer-events="all" transform="translate(85.4,63.6)"><rect class="bg" shape-rendering="crispEdges" width="96" height="100" x="0" y="0" style="stroke: rgb(68, 68, 68); stroke-opacity: 1; fill: rgb(0, 0, 0); fill-opacity: 0; stroke-width: 0px;"/><g class="scrollbox" transform="" clip-path="url('#legend3e0092')"><g class="groups" transform=""><g class="traces" transform="translate(0,16.25)" style="opacity: 1;"><text class="legendtext" text-anchor="start" x="40" y="5.85" style="font-family: 'Segoe UI'; font-size: 15px; fill: rgb(42, 63, 95); fill-opacity: 1; white-space: pre;">Java</text><g class="layers" style="opacity: 1;"><g class="legendfill"/><g class="legendlines"><path class="js-line" d="M5,0h30" style="fill: none; stroke: rgb(234, 80, 77); stroke-opacity: 1; stroke-width: 4px;"/></g><g class="legendsymbols"><g class="legendpoints"><path class="scatterpts" transform="translate(20,0)" d="M3,0A3,3 0 1,1 0,-3A3,3 0 0,1 3,0Z" style="opacity: 1; stroke-width: 0px; fill: rgb(234, 80, 77); fill-opacity: 1;"/></g></g></g><rect class="legendtoggle" x="0" y="-11.25" width="90.328125" height="22.5" style="fill: rgb(0, 0, 0); fill-opacity: 0;"/></g></g><g class="groups" transform=""><g class="traces" transform="translate(0,38.75)" style="opacity: 1;"><text class="legendtext" text-anchor="start" x="40" y="5.85" style="font-family: 'Segoe UI'; font-size: 15px; fill: rgb(42, 63, 95); fill-opacity: 1; white-space: pre;">Python</text><g class="layers" style="opacity: 1;"><g class="legendfill"/><g class="legendlines"><path class="js-line" d="M5,0h30" style="fill: none; stroke: rgb(178, 33, 29); stroke-opacity: 1; stroke-width: 4px;"/></g><g class="legendsymbols"><g class="legendpoints"><path class="scatterpts" transform="translate(20,0)" d="M3,0A3,3 0 1,1 0,-3A3,3 0 0,1 3,0Z" style="opacity: 1; stroke-width: 0px; fill: rgb(178, 33, 29); fill-opacity: 1;"/></g></g></g><rect class="legendtoggle" x="0" y="-11.25" width="90.328125" height="22.5" style="fill: rgb(0, 0, 0); fill-opacity: 0;"/></g></g><g class="groups" transform=""><g class="traces" transform="translate(0,61.25)" style="opacity: 1;"><text class="legendtext" text-anchor="start" x="40" y="5.85" style="font-family: 'Segoe UI'; font-size: 15px; fill: rgb(42, 63, 95); fill-opacity: 1; white-space: pre;">SQL</text><g class="layers" style="opacity: 1;"><g class="legendfill"/><g class="legendlines"><path class="js-line" d="M5,0h30" style="fill: none; stroke: rgb(49, 46, 46); stroke-opacity: 1; stroke-width: 4px;"/></g><g class="legendsymbols"><g class="legendpoints"><path class="scatterpts" transform="translate(20,0)" d="M3,0A3,3 0 1,1 0,-3A3,3 0 0,1 3,0Z" style="opacity: 1; stroke-width: 0px; fill: rgb(49, 46, 46); fill-opacity: 1;"/></g></g></g><rect class="legendtoggle" x="0" y="-11.25" width="90.328125" height="22.5" style="fill: rgb(0, 0, 0); fill-opacity: 0;"/></g></g><g class="groups" transform=""><g class="traces" transform="translate(0,83.75)" style="opacity: 1;"><text class="legendtext" text-anchor="start" x="40" y="5.85" style="font-family: 'Segoe UI'; font-size: 15px; fill: rgb(42, 63, 95); fill-opacity: 1; white-space: pre;">Tableau</text><g class="layers" style="opacity: 1;"><g class="legendfill"/><g class="legendlines"><path class="js-line" d="M5,0h30" style="fill: none; stroke: rgb(204, 204, 204); stroke-opacity: 1; stroke-width: 4px;"/></g><g class="legendsymbols"><g class="legendpoints"><path class="scatterpts" transform="translate(20,0)" d="M3,0A3,3 0 1,1 0,-3A3,3 0 0,1 3,0Z" style="opacity: 1; stroke-width: 0px; fill: rgb(204, 204, 204); fill-opacity: 1;"/></g></g></g><rect class="legendtoggle" x="0" y="-11.25" width="90.328125" height="22.5" style="fill: rgb(0, 0, 0); fill-opacity: 0;"/></g></g></g><rect class="scrollbar" rx="20" ry="3" width="0" height="0" x="0" y="0" style="fill: rgb(128, 139, 164); fill-opacity: 1;"/></g><g class="g-gtitle"/><g class="g-xtitle"/><g class="g-ytitle"/><g class="annotation" data-index="0" style="opacity: 1;"><g class="annotation-text-g" transform="rotate(0,596.5,66.92)"><g class="cursor-pointer" transform="translate(575,55)"><rect class="bg" x="0.5" y="0.5" width="42" height="22" style="stroke-width: 1px; stroke: rgb(0, 0, 0); stroke-opacity: 0; fill: rgb(0, 0, 0); fill-opacity: 0;"/><text class="annotation-text" text-anchor="middle" x="21.546875" y="17" style="font-family: 'Segoe UI'; font-size: 14px; fill: rgb(42, 63, 95); fill-opacity: 1; white-space: pre;">Expert</text></g></g></g><g class="annotation" data-index="1" style="opacity: 1;"><g class="annotation-text-g" transform="rotate(0,607.5,136.15)"><g class="cursor-pointer" transform="translate(575,125)"><rect class="bg" x="0.5" y="0.5" width="64" height="22" style="stroke-width: 1px; stroke: rgb(0, 0, 0); stroke-opacity: 0; fill: rgb(0, 0, 0); fill-opacity: 0;"/><text class="annotation-text" text-anchor="middle" x="32.40625" y="17" style="font-family: 'Segoe UI'; font-size: 14px; fill: rgb(42, 63, 95); fill-opacity: 1; white-space: pre;">Advanced</text></g></g></g><g class="annotation" data-index="2" style="opacity: 1;"><g class="annotation-text-g" transform="rotate(0,616.5,205.38)"><g class="cursor-pointer" transform="translate(575,194)"><rect class="bg" x="0.5" y="0.5" width="82" height="22" style="stroke-width: 1px; stroke: rgb(0, 0, 0); stroke-opacity: 0; fill: rgb(0, 0, 0); fill-opacity: 0;"/><text class="annotation-text" text-anchor="middle" x="41.28125" y="17" style="font-family: 'Segoe UI'; font-size: 14px; fill: rgb(42, 63, 95); fill-opacity: 1; white-space: pre;">Intermediate</text></g></g></g><g class="annotation" data-index="3" style="opacity: 1;"><g class="annotation-text-g" transform="rotate(0,604.5,274.62)"><g class="cursor-pointer" transform="translate(575,263)"><rect class="bg" x="0.5" y="0.5" width="58" height="22" style="stroke-width: 1px; stroke: rgb(0, 0, 0); stroke-opacity: 0; fill: rgb(0, 0, 0); fill-opacity: 0;"/><text class="annotation-text" text-anchor="middle" x="29.515625" y="17" style="font-family: 'Segoe UI'; font-size: 14px; fill: rgb(42, 63, 95); fill-opacity: 1; white-space: pre;">Beginner</text></g></g></g><g class="annotation" data-index="4" style="opacity: 1;"><g class="annotation-text-g" transform="rotate(0,603.5,343.85)"><g class="cursor-pointer" transform="translate(575,332)"><rect class="bg" x="0.5" y="0.5" width="56" height="22" style="stroke-width: 1px; stroke: rgb(0, 0, 0); stroke-opacity: 0; fill: rgb(0, 0, 0); fill-opacity: 0;"/><text class="annotation-text" text-anchor="middle" x="28.6875" y="17" style="font-family: 'Segoe UI'; font-size: 14px; fill: rgb(42, 63, 95); fill-opacity: 1; white-space: pre;">Learning</text></g></g></g></g></svg>